<svg width="24" height="24" viewBox="0 0 24 24" fill="none" xmlns="http://www.w3.org/2000/svg">
<g filter="url(#filter0_iii_2012_87)">
<path d="M19.6155 1.73475H4.10926C2.61809 1.73475 1.40926 2.94358 1.40926 4.43475V19.941C1.40926 21.4322 2.61809 22.641 4.10926 22.641H19.6155C21.1067 22.641 22.3155 21.4322 22.3155 19.941V4.43475C22.3155 2.94358 21.1067 1.73475 19.6155 1.73475Z" fill="url(#paint0_linear_2012_87)"/>
<path d="M19.6155 1.73475H4.10926C2.61809 1.73475 1.40926 2.94358 1.40926 4.43475V19.941C1.40926 21.4322 2.61809 22.641 4.10926 22.641H19.6155C21.1067 22.641 22.3155 21.4322 22.3155 19.941V4.43475C22.3155 2.94358 21.1067 1.73475 19.6155 1.73475Z" fill="url(#paint1_radial_2012_87)"/>
</g>
<g filter="url(#filter1_f_2012_87)">
<path d="M21.0503 3.60975V20.766" stroke="url(#paint2_linear_2012_87)" stroke-width="1.125" stroke-linecap="round"/>
</g>
<g filter="url(#filter2_f_2012_87)">
<path d="M4.00726 3.09375H20.3438" stroke="url(#paint3_linear_2012_87)" stroke-width="1.125" stroke-linecap="round"/>
</g>
<g filter="url(#filter3_f_2012_87)">
<path d="M10.107 17.4375C9.80997 17.4384 9.52446 17.3226 9.31201 17.115L5.00401 12.8835C4.89996 12.782 4.81727 12.6607 4.76082 12.5267C4.70436 12.3928 4.67528 12.2489 4.67528 12.1035C4.67528 11.9581 4.70436 11.8142 4.76082 11.6803C4.81727 11.5463 4.89996 11.425 5.00401 11.3235C5.21649 11.1163 5.5015 11.0004 5.79826 11.0004C6.09501 11.0004 6.38002 11.1163 6.59251 11.3235L10.107 14.7742L17.7578 7.26074C17.9702 7.05358 18.2552 6.93764 18.552 6.93764C18.8488 6.93764 19.1338 7.05358 19.3463 7.26074C19.4504 7.36221 19.5332 7.4835 19.5897 7.61746C19.6462 7.75142 19.6753 7.89535 19.6753 8.04074C19.6753 8.18614 19.6462 8.33006 19.5897 8.46403C19.5332 8.59799 19.4504 8.71928 19.3463 8.82074L10.9013 17.1142C10.6892 17.3225 10.4042 17.4387 10.107 17.4375Z" fill="#089108"/>
</g>
<g filter="url(#filter4_ii_2012_87)">
<path d="M10.107 17.4375C9.80997 17.4384 9.52446 17.3226 9.31201 17.115L5.00401 12.8835C4.89996 12.782 4.81727 12.6607 4.76082 12.5267C4.70436 12.3928 4.67528 12.2489 4.67528 12.1035C4.67528 11.9581 4.70436 11.8142 4.76082 11.6803C4.81727 11.5463 4.89996 11.425 5.00401 11.3235C5.21649 11.1163 5.5015 11.0004 5.79826 11.0004C6.09501 11.0004 6.38002 11.1163 6.59251 11.3235L10.0545 14.7225C10.0685 14.7362 10.0874 14.7439 10.107 14.7439C10.1266 14.7439 10.1455 14.7362 10.1595 14.7225L17.7578 7.26C17.9702 7.05284 18.2552 6.93689 18.552 6.93689C18.8488 6.93689 19.1338 7.05284 19.3463 7.26C19.4504 7.36146 19.5332 7.48275 19.5897 7.61671C19.6462 7.75068 19.6753 7.8946 19.6753 8.04C19.6753 8.18539 19.6462 8.32932 19.5897 8.46328C19.5332 8.59724 19.4504 8.71853 19.3463 8.82L10.9013 17.115C10.6823 17.3302 10.395 17.4375 10.107 17.4375Z" fill="#FCF2FF"/>
</g>
<defs>
<filter id="filter0_iii_2012_87" x="1.03426" y="0.984749" width="22.7812" height="22.0312" filterUnits="userSpaceOnUse" color-interpolation-filters="sRGB">
<feFlood flood-opacity="0" result="BackgroundImageFix"/>
<feBlend mode="normal" in="SourceGraphic" in2="BackgroundImageFix" result="shape"/>
<feColorMatrix in="SourceAlpha" type="matrix" values="0 0 0 0 0 0 0 0 0 0 0 0 0 0 0 0 0 0 127 0" result="hardAlpha"/>
<feOffset dx="1.5" dy="-0.75"/>
<feGaussianBlur stdDeviation="1.125"/>
<feComposite in2="hardAlpha" operator="arithmetic" k2="-1" k3="1"/>
<feColorMatrix type="matrix" values="0 0 0 0 0.176471 0 0 0 0 0.521569 0 0 0 0 0.309804 0 0 0 1 0"/>
<feBlend mode="normal" in2="shape" result="effect1_innerShadow_2012_87"/>
<feColorMatrix in="SourceAlpha" type="matrix" values="0 0 0 0 0 0 0 0 0 0 0 0 0 0 0 0 0 0 127 0" result="hardAlpha"/>
<feOffset dy="-0.75"/>
<feGaussianBlur stdDeviation="1.125"/>
<feComposite in2="hardAlpha" operator="arithmetic" k2="-1" k3="1"/>
<feColorMatrix type="matrix" values="0 0 0 0 0.25098 0 0 0 0 0.490196 0 0 0 0 0.462745 0 0 0 1 0"/>
<feBlend mode="normal" in2="effect1_innerShadow_2012_87" result="effect2_innerShadow_2012_87"/>
<feColorMatrix in="SourceAlpha" type="matrix" values="0 0 0 0 0 0 0 0 0 0 0 0 0 0 0 0 0 0 127 0" result="hardAlpha"/>
<feOffset dx="-0.375" dy="0.375"/>
<feGaussianBlur stdDeviation="0.375"/>
<feComposite in2="hardAlpha" operator="arithmetic" k2="-1" k3="1"/>
<feColorMatrix type="matrix" values="0 0 0 0 0.356863 0 0 0 0 0.905882 0 0 0 0 0.560784 0 0 0 1 0"/>
<feBlend mode="normal" in2="effect2_innerShadow_2012_87" result="effect3_innerShadow_2012_87"/>
</filter>
<filter id="filter1_f_2012_87" x="18.9878" y="1.54725" width="4.125" height="21.2812" filterUnits="userSpaceOnUse" color-interpolation-filters="sRGB">
<feFlood flood-opacity="0" result="BackgroundImageFix"/>
<feBlend mode="normal" in="SourceGraphic" in2="BackgroundImageFix" result="shape"/>
<feGaussianBlur stdDeviation="0.75" result="effect1_foregroundBlur_2012_87"/>
</filter>
<filter id="filter2_f_2012_87" x="1.94476" y="1.03125" width="20.4615" height="4.125" filterUnits="userSpaceOnUse" color-interpolation-filters="sRGB">
<feFlood flood-opacity="0" result="BackgroundImageFix"/>
<feBlend mode="normal" in="SourceGraphic" in2="BackgroundImageFix" result="shape"/>
<feGaussianBlur stdDeviation="0.75" result="effect1_foregroundBlur_2012_87"/>
</filter>
<filter id="filter3_f_2012_87" x="3.92528" y="6.18764" width="16.5" height="11.9999" filterUnits="userSpaceOnUse" color-interpolation-filters="sRGB">
<feFlood flood-opacity="0" result="BackgroundImageFix"/>
<feBlend mode="normal" in="SourceGraphic" in2="BackgroundImageFix" result="shape"/>
<feGaussianBlur stdDeviation="0.375" result="effect1_foregroundBlur_2012_87"/>
</filter>
<filter id="filter4_ii_2012_87" x="4.37528" y="6.63689" width="15.6" height="11.1006" filterUnits="userSpaceOnUse" color-interpolation-filters="sRGB">
<feFlood flood-opacity="0" result="BackgroundImageFix"/>
<feBlend mode="normal" in="SourceGraphic" in2="BackgroundImageFix" result="shape"/>
<feColorMatrix in="SourceAlpha" type="matrix" values="0 0 0 0 0 0 0 0 0 0 0 0 0 0 0 0 0 0 127 0" result="hardAlpha"/>
<feOffset dx="-0.3" dy="0.3"/>
<feGaussianBlur stdDeviation="0.28125"/>
<feComposite in2="hardAlpha" operator="arithmetic" k2="-1" k3="1"/>
<feColorMatrix type="matrix" values="0 0 0 0 0.913725 0 0 0 0 0.886275 0 0 0 0 0.968627 0 0 0 1 0"/>
<feBlend mode="normal" in2="shape" result="effect1_innerShadow_2012_87"/>
<feColorMatrix in="SourceAlpha" type="matrix" values="0 0 0 0 0 0 0 0 0 0 0 0 0 0 0 0 0 0 127 0" result="hardAlpha"/>
<feOffset dx="0.3" dy="-0.3"/>
<feGaussianBlur stdDeviation="0.15"/>
<feComposite in2="hardAlpha" operator="arithmetic" k2="-1" k3="1"/>
<feColorMatrix type="matrix" values="0 0 0 0 1 0 0 0 0 0.988235 0 0 0 0 1 0 0 0 1 0"/>
<feBlend mode="normal" in2="effect1_innerShadow_2012_87" result="effect2_innerShadow_2012_87"/>
</filter>
<linearGradient id="paint0_linear_2012_87" x1="11.8628" y1="4.41525" x2="11.8628" y2="29.355" gradientUnits="userSpaceOnUse">
<stop stop-color="#10C920"/>
<stop offset="1" stop-color="#00C20A"/>
</linearGradient>
<radialGradient id="paint1_radial_2012_87" cx="0" cy="0" r="1" gradientUnits="userSpaceOnUse" gradientTransform="translate(20.652 3.3045) rotate(136.771) scale(1.60833 1.87849)">
<stop stop-color="#92FF80"/>
<stop offset="1" stop-color="#A1FF80" stop-opacity="0"/>
</radialGradient>
<linearGradient id="paint2_linear_2012_87" x1="-nan" y1="-nan" x2="-nan" y2="-nan" gradientUnits="userSpaceOnUse">
<stop stop-color="#74FCA8"/>
<stop offset="1" stop-color="#61DB90"/>
</linearGradient>
<linearGradient id="paint3_linear_2012_87" x1="-nan" y1="-nan" x2="-nan" y2="-nan" gradientUnits="userSpaceOnUse">
<stop stop-color="#66F39D"/>
<stop offset="1" stop-color="#60E496"/>
</linearGradient>
</defs>
</svg>
